<svg width="400" height="400" viewBox="0 0 400 400" fill="none" xmlns="http://www.w3.org/2000/svg">
  <!-- White background circle -->
  <circle cx="200" cy="200" r="200" fill="white"/>
  
  <!-- Main K lettermark centered and sized for circle -->
  <g transform="translate(120, 120)">
    <!-- Left vertical bar of K -->
    <rect x="0" y="0" width="40" height="160" fill="black"/>
    
    <!-- Upper diagonal of K -->
    <path d="M40 0 L160 0 L160 25 L90 80 L160 80 L160 105 L65 105 Z" fill="black"/>
    
    <!-- Lower diagonal of K -->
    <path d="M65 75 L160 75 L160 100 L90 100 L160 160 L160 185 L130 185 L40 95 Z" fill="black"/>
    
    <!-- Purple and green accents positioned within circle bounds -->
    <rect x="135" y="10" width="12" height="12" fill="#a855f7"/>
    <rect x="135" y="85" width="12" height="12" fill="#00ff00"/>
    <rect x="135" y="148" width="12" height="12" fill="#a855f7"/>
    
    <!-- Side accent dots -->
    <circle cx="20" cy="25" r="6" fill="#00ff00"/>
    <circle cx="20" cy="135" r="6" fill="#a855f7"/>
  </g>
  
  <!-- Circular accent elements around the perimeter (inside circle) -->
  <circle cx="200" cy="60" r="8" fill="#a855f7"/>
  <circle cx="340" cy="200" r="8" fill="#00ff00"/>
  <circle cx="200" cy="340" r="8" fill="#a855f7"/>
  <circle cx="60" cy="200" r="8" fill="#00ff00"/>
  
  <!-- Optional: thin circle border -->
  <circle cx="200" cy="200" r="195" fill="none" stroke="black" stroke-width="10"/>
</svg>