<svg width="400" height="400" viewBox="0 0 400 400" fill="none" xmlns="http://www.w3.org/2000/svg">
  <!-- Background -->
  <rect width="400" height="400" fill="white"/>
  
  <!-- Main K lettermark with brutalist design -->
  <g transform="translate(50, 50)">
    <!-- Left vertical bar of K -->
    <rect x="0" y="0" width="60" height="300" fill="black"/>
    
    <!-- Upper diagonal of K -->
    <path d="M60 0 L300 0 L300 40 L140 150 L300 150 L300 190 L100 190 Z" fill="black"/>
    
    <!-- Lower diagonal of K -->
    <path d="M100 110 L300 110 L300 150 L140 150 L300 300 L300 340 L240 340 L60 160 Z" fill="black"/>
    
    <!-- Electric green and purple accents - small geometric details -->
    <rect x="270" y="15" width="15" height="15" fill="#00ff00"/>
    <rect x="270" y="125" width="15" height="15" fill="#a855f7"/>
    
    <!-- Additional purple accents -->
    <rect x="240" y="45" width="10" height="10" fill="#a855f7"/>
    <rect x="20" y="275" width="20" height="10" fill="#a855f7"/>
  </g>
  
  <!-- Subtle housing element - minimalist roof line with purple accent -->
  <path d="M80 30 L120 10 L160 30 L160 35 L80 35 Z" fill="black"/>
  <rect x="135" y="15" width="8" height="8" fill="#a855f7"/>
  
  <!-- Purple corner accents -->
  <rect x="15" y="15" width="20" height="8" fill="#a855f7"/>
  <rect x="365" y="15" width="20" height="8" fill="#a855f7"/>
  <rect x="15" y="377" width="20" height="8" fill="#a855f7"/>
  <rect x="365" y="377" width="20" height="8" fill="#a855f7"/>
  
  <!-- Border for brutalist effect -->
  <rect x="3" y="3" width="394" height="394" fill="none" stroke="black" stroke-width="6"/>
</svg>